<mxfile host="app.diagrams.net" modified="2024-01-11T07:15:18.448Z" agent="Mozilla/5.0 (Windows NT 10.0; Win64; x64) AppleWebKit/537.36 (KHTML, like Gecko) Chrome/119.0.0.0 Safari/537.36" etag="bD-02ZeldywZyQQLrdQB" version="22.1.18" type="github">
  <diagram id="C5RBs43oDa-KdzZeNtuy" name="Page-1">
    <mxGraphModel dx="2555" dy="653" grid="1" gridSize="10" guides="1" tooltips="1" connect="1" arrows="1" fold="1" page="1" pageScale="1" pageWidth="827" pageHeight="1169" math="0" shadow="0">
      <root>
        <mxCell id="WIyWlLk6GJQsqaUBKTNV-0" />
        <mxCell id="WIyWlLk6GJQsqaUBKTNV-1" parent="WIyWlLk6GJQsqaUBKTNV-0" />
        <mxCell id="WIyWlLk6GJQsqaUBKTNV-2" value="" style="rounded=0;html=1;jettySize=auto;orthogonalLoop=1;fontSize=11;endArrow=block;endFill=0;endSize=8;strokeWidth=1;shadow=0;labelBackgroundColor=none;edgeStyle=orthogonalEdgeStyle;" parent="WIyWlLk6GJQsqaUBKTNV-1" source="WIyWlLk6GJQsqaUBKTNV-3" edge="1">
          <mxGeometry relative="1" as="geometry">
            <mxPoint x="220" y="170" as="targetPoint" />
          </mxGeometry>
        </mxCell>
        <mxCell id="WIyWlLk6GJQsqaUBKTNV-3" value="开始" style="rounded=1;whiteSpace=wrap;html=1;fontSize=12;glass=0;strokeWidth=1;shadow=0;" parent="WIyWlLk6GJQsqaUBKTNV-1" vertex="1">
          <mxGeometry x="160" y="80" width="120" height="40" as="geometry" />
        </mxCell>
        <mxCell id="WIyWlLk6GJQsqaUBKTNV-11" value="结束" style="rounded=1;whiteSpace=wrap;html=1;fontSize=12;glass=0;strokeWidth=1;shadow=0;" parent="WIyWlLk6GJQsqaUBKTNV-1" vertex="1">
          <mxGeometry x="160" y="860" width="120" height="40" as="geometry" />
        </mxCell>
        <mxCell id="UgjjlVcdCLgNbcSXXjpN-2" value="" style="edgeStyle=orthogonalEdgeStyle;rounded=0;orthogonalLoop=1;jettySize=auto;html=1;" edge="1" parent="WIyWlLk6GJQsqaUBKTNV-1" source="UgjjlVcdCLgNbcSXXjpN-0" target="UgjjlVcdCLgNbcSXXjpN-1">
          <mxGeometry relative="1" as="geometry" />
        </mxCell>
        <mxCell id="UgjjlVcdCLgNbcSXXjpN-6" value="" style="edgeStyle=orthogonalEdgeStyle;rounded=0;orthogonalLoop=1;jettySize=auto;html=1;" edge="1" parent="WIyWlLk6GJQsqaUBKTNV-1" source="UgjjlVcdCLgNbcSXXjpN-0" target="UgjjlVcdCLgNbcSXXjpN-5">
          <mxGeometry relative="1" as="geometry" />
        </mxCell>
        <mxCell id="UgjjlVcdCLgNbcSXXjpN-0" value="输入后处理" style="rounded=0;whiteSpace=wrap;html=1;" vertex="1" parent="WIyWlLk6GJQsqaUBKTNV-1">
          <mxGeometry x="160" y="170" width="120" height="50" as="geometry" />
        </mxCell>
        <mxCell id="UgjjlVcdCLgNbcSXXjpN-4" value="" style="edgeStyle=orthogonalEdgeStyle;rounded=0;orthogonalLoop=1;jettySize=auto;html=1;" edge="1" parent="WIyWlLk6GJQsqaUBKTNV-1" source="UgjjlVcdCLgNbcSXXjpN-1" target="UgjjlVcdCLgNbcSXXjpN-3">
          <mxGeometry relative="1" as="geometry" />
        </mxCell>
        <mxCell id="UgjjlVcdCLgNbcSXXjpN-8" value="" style="edgeStyle=orthogonalEdgeStyle;rounded=0;orthogonalLoop=1;jettySize=auto;html=1;" edge="1" parent="WIyWlLk6GJQsqaUBKTNV-1" source="UgjjlVcdCLgNbcSXXjpN-1" target="UgjjlVcdCLgNbcSXXjpN-7">
          <mxGeometry relative="1" as="geometry" />
        </mxCell>
        <mxCell id="UgjjlVcdCLgNbcSXXjpN-1" value="固定第一行" style="rounded=0;whiteSpace=wrap;html=1;" vertex="1" parent="WIyWlLk6GJQsqaUBKTNV-1">
          <mxGeometry x="160" y="265" width="120" height="50" as="geometry" />
        </mxCell>
        <mxCell id="UgjjlVcdCLgNbcSXXjpN-3" value="枚举第一行的所有状态：0~31 共32种状态,这个状态称为p&lt;br&gt;&lt;div style=&quot;background-color: rgb(255, 255, 254); line-height: 28px;&quot;&gt;&lt;font style=&quot;font-size: 12px;&quot; face=&quot;Helvetica&quot;&gt;p的二进制10101 &amp;nbsp;第i位为1表示第一行的第i位不用改变，否则需要改变&lt;/font&gt;&lt;/div&gt;" style="shape=step;perimeter=stepPerimeter;whiteSpace=wrap;html=1;fixedSize=1;rounded=0;" vertex="1" parent="WIyWlLk6GJQsqaUBKTNV-1">
          <mxGeometry x="360" y="250" width="420" height="80" as="geometry" />
        </mxCell>
        <mxCell id="UgjjlVcdCLgNbcSXXjpN-5" value="把输入的01串用十进制数字存储，十进制数其二进制下和该01串等价" style="shape=step;perimeter=stepPerimeter;whiteSpace=wrap;html=1;fixedSize=1;rounded=0;" vertex="1" parent="WIyWlLk6GJQsqaUBKTNV-1">
          <mxGeometry x="360" y="155" width="430" height="80" as="geometry" />
        </mxCell>
        <mxCell id="UgjjlVcdCLgNbcSXXjpN-10" value="" style="edgeStyle=orthogonalEdgeStyle;rounded=0;orthogonalLoop=1;jettySize=auto;html=1;" edge="1" parent="WIyWlLk6GJQsqaUBKTNV-1" source="UgjjlVcdCLgNbcSXXjpN-7" target="UgjjlVcdCLgNbcSXXjpN-9">
          <mxGeometry relative="1" as="geometry" />
        </mxCell>
        <mxCell id="UgjjlVcdCLgNbcSXXjpN-12" value="" style="edgeStyle=orthogonalEdgeStyle;rounded=0;orthogonalLoop=1;jettySize=auto;html=1;" edge="1" parent="WIyWlLk6GJQsqaUBKTNV-1" source="UgjjlVcdCLgNbcSXXjpN-7" target="UgjjlVcdCLgNbcSXXjpN-11">
          <mxGeometry relative="1" as="geometry" />
        </mxCell>
        <mxCell id="UgjjlVcdCLgNbcSXXjpN-7" value="将1-4行全部变为1" style="rounded=0;whiteSpace=wrap;html=1;" vertex="1" parent="WIyWlLk6GJQsqaUBKTNV-1">
          <mxGeometry x="160" y="395" width="120" height="50" as="geometry" />
        </mxCell>
        <mxCell id="UgjjlVcdCLgNbcSXXjpN-9" value="其中第i行通过第i+1行改变" style="shape=step;perimeter=stepPerimeter;whiteSpace=wrap;html=1;fixedSize=1;rounded=0;" vertex="1" parent="WIyWlLk6GJQsqaUBKTNV-1">
          <mxGeometry x="360" y="380" width="370" height="80" as="geometry" />
        </mxCell>
        <mxCell id="UgjjlVcdCLgNbcSXXjpN-16" value="" style="edgeStyle=orthogonalEdgeStyle;rounded=0;orthogonalLoop=1;jettySize=auto;html=1;" edge="1" parent="WIyWlLk6GJQsqaUBKTNV-1" source="UgjjlVcdCLgNbcSXXjpN-11" target="UgjjlVcdCLgNbcSXXjpN-15">
          <mxGeometry relative="1" as="geometry" />
        </mxCell>
        <mxCell id="UgjjlVcdCLgNbcSXXjpN-17" value="yes" style="edgeLabel;html=1;align=center;verticalAlign=middle;resizable=0;points=[];" vertex="1" connectable="0" parent="UgjjlVcdCLgNbcSXXjpN-16">
          <mxGeometry x="0.2703" relative="1" as="geometry">
            <mxPoint as="offset" />
          </mxGeometry>
        </mxCell>
        <mxCell id="UgjjlVcdCLgNbcSXXjpN-19" value="" style="edgeStyle=orthogonalEdgeStyle;rounded=0;orthogonalLoop=1;jettySize=auto;html=1;" edge="1" parent="WIyWlLk6GJQsqaUBKTNV-1" source="UgjjlVcdCLgNbcSXXjpN-11" target="UgjjlVcdCLgNbcSXXjpN-18">
          <mxGeometry relative="1" as="geometry" />
        </mxCell>
        <mxCell id="UgjjlVcdCLgNbcSXXjpN-20" value="no" style="edgeLabel;html=1;align=center;verticalAlign=middle;resizable=0;points=[];" vertex="1" connectable="0" parent="UgjjlVcdCLgNbcSXXjpN-19">
          <mxGeometry x="-0.2029" relative="1" as="geometry">
            <mxPoint as="offset" />
          </mxGeometry>
        </mxCell>
        <mxCell id="UgjjlVcdCLgNbcSXXjpN-11" value="第五行是否全为1？且k是否比ans小" style="rhombus;whiteSpace=wrap;html=1;rounded=0;" vertex="1" parent="WIyWlLk6GJQsqaUBKTNV-1">
          <mxGeometry x="145" y="520" width="150" height="130" as="geometry" />
        </mxCell>
        <mxCell id="UgjjlVcdCLgNbcSXXjpN-25" value="" style="edgeStyle=orthogonalEdgeStyle;rounded=0;orthogonalLoop=1;jettySize=auto;html=1;" edge="1" parent="WIyWlLk6GJQsqaUBKTNV-1" source="UgjjlVcdCLgNbcSXXjpN-15" target="UgjjlVcdCLgNbcSXXjpN-24">
          <mxGeometry relative="1" as="geometry" />
        </mxCell>
        <mxCell id="UgjjlVcdCLgNbcSXXjpN-15" value="更新ans" style="whiteSpace=wrap;html=1;rounded=0;" vertex="1" parent="WIyWlLk6GJQsqaUBKTNV-1">
          <mxGeometry x="160" y="680" width="120" height="60" as="geometry" />
        </mxCell>
        <mxCell id="UgjjlVcdCLgNbcSXXjpN-18" value="return" style="whiteSpace=wrap;html=1;rounded=0;" vertex="1" parent="WIyWlLk6GJQsqaUBKTNV-1">
          <mxGeometry x="-70" y="555" width="120" height="60" as="geometry" />
        </mxCell>
        <mxCell id="UgjjlVcdCLgNbcSXXjpN-21" value="" style="endArrow=classic;html=1;rounded=0;exitX=0.5;exitY=1;exitDx=0;exitDy=0;entryX=0.434;entryY=-0.004;entryDx=0;entryDy=0;entryPerimeter=0;" edge="1" parent="WIyWlLk6GJQsqaUBKTNV-1" source="UgjjlVcdCLgNbcSXXjpN-18" target="UgjjlVcdCLgNbcSXXjpN-24">
          <mxGeometry width="50" height="50" relative="1" as="geometry">
            <mxPoint x="350" y="560" as="sourcePoint" />
            <mxPoint x="180" y="800" as="targetPoint" />
            <Array as="points">
              <mxPoint x="80" y="690" />
            </Array>
          </mxGeometry>
        </mxCell>
        <mxCell id="UgjjlVcdCLgNbcSXXjpN-22" value="" style="endArrow=classic;html=1;rounded=0;entryX=0;entryY=0.5;entryDx=0;entryDy=0;exitX=0;exitY=0.5;exitDx=0;exitDy=0;" edge="1" parent="WIyWlLk6GJQsqaUBKTNV-1" source="UgjjlVcdCLgNbcSXXjpN-24" target="UgjjlVcdCLgNbcSXXjpN-1">
          <mxGeometry width="50" height="50" relative="1" as="geometry">
            <mxPoint y="750" as="sourcePoint" />
            <mxPoint x="-10" y="294.13793103448273" as="targetPoint" />
            <Array as="points">
              <mxPoint x="-150" y="610" />
            </Array>
          </mxGeometry>
        </mxCell>
        <mxCell id="UgjjlVcdCLgNbcSXXjpN-28" value="no" style="edgeLabel;html=1;align=center;verticalAlign=middle;resizable=0;points=[];" vertex="1" connectable="0" parent="UgjjlVcdCLgNbcSXXjpN-22">
          <mxGeometry x="-0.4794" y="-2" relative="1" as="geometry">
            <mxPoint as="offset" />
          </mxGeometry>
        </mxCell>
        <mxCell id="UgjjlVcdCLgNbcSXXjpN-26" value="" style="edgeStyle=orthogonalEdgeStyle;rounded=0;orthogonalLoop=1;jettySize=auto;html=1;" edge="1" parent="WIyWlLk6GJQsqaUBKTNV-1" source="UgjjlVcdCLgNbcSXXjpN-24" target="WIyWlLk6GJQsqaUBKTNV-11">
          <mxGeometry relative="1" as="geometry" />
        </mxCell>
        <mxCell id="UgjjlVcdCLgNbcSXXjpN-27" value="yes" style="edgeLabel;html=1;align=center;verticalAlign=middle;resizable=0;points=[];" vertex="1" connectable="0" parent="UgjjlVcdCLgNbcSXXjpN-26">
          <mxGeometry x="-0.8484" relative="1" as="geometry">
            <mxPoint as="offset" />
          </mxGeometry>
        </mxCell>
        <mxCell id="UgjjlVcdCLgNbcSXXjpN-24" value="是否枚举完32个状态" style="rhombus;whiteSpace=wrap;html=1;rounded=0;" vertex="1" parent="WIyWlLk6GJQsqaUBKTNV-1">
          <mxGeometry x="180" y="760" width="80" height="80" as="geometry" />
        </mxCell>
      </root>
    </mxGraphModel>
  </diagram>
</mxfile>
